<svg width="15" height="15" viewBox="0 0 15 15" fill="none" xmlns="http://www.w3.org/2000/svg">
<rect x="0.35" y="0.35" width="14.3" height="14.3" rx="2.65" stroke="#4F4F4F" stroke-width="0.7"/>
<rect x="0.35" y="0.35" width="14.3" height="14.3" rx="2.65" fill="#F47932" stroke="#F47932" stroke-width="0.7"/>
<path d="M6.09743 9.53906L11.5187 4.00781C11.6872 3.83594 11.9016 3.75 12.1619 3.75C12.4223 3.75 12.6367 3.83594 12.8051 4.00781C12.9736 4.17969 13.0578 4.39844 13.0578 4.66406C13.0578 4.92969 12.9736 5.14844 12.8051 5.32031L6.74063 11.5078C6.55686 11.6953 6.34246 11.7891 6.09743 11.7891C5.8524 11.7891 5.638 11.6953 5.45423 11.5078L3.06519 9.07031C2.89673 8.89844 2.8125 8.67969 2.8125 8.41406C2.8125 8.14844 2.89673 7.92969 3.06519 7.75781C3.23364 7.58594 3.44805 7.5 3.70839 7.5C3.96873 7.5 4.18314 7.58594 4.35159 7.75781L6.09743 9.53906Z" fill="white"/>
</svg>
