<svg width="24" height="24" viewBox="0 0 24 24" fill="none" xmlns="http://www.w3.org/2000/svg">
<path fill-rule="evenodd" clip-rule="evenodd" d="M18.8512 6.45119C18.9367 6.36578 19.0046 6.26436 19.0509 6.15273C19.0972 6.04109 19.1211 5.92143 19.1212 5.80056C19.1213 5.6797 19.0975 5.56 19.0514 5.44831C19.0052 5.33661 18.9374 5.23511 18.852 5.14959C18.7666 5.06408 18.6652 4.99622 18.5536 4.9499C18.4419 4.90358 18.3223 4.8797 18.2014 4.87962C18.0805 4.87955 17.9608 4.90328 17.8491 4.94947C17.7374 4.99565 17.6359 5.06338 17.5504 5.14879L12 10.6992L6.45123 5.14879C6.27852 4.97609 6.04427 4.87906 5.80003 4.87906C5.55578 4.87906 5.32153 4.97609 5.14883 5.14879C4.97612 5.3215 4.87909 5.55575 4.87909 5.79999C4.87909 6.04424 4.97612 6.27849 5.14883 6.45119L10.6992 12L5.14883 17.5488C5.06331 17.6343 4.99547 17.7358 4.94919 17.8476C4.90291 17.9593 4.87909 18.0791 4.87909 18.2C4.87909 18.3209 4.90291 18.4407 4.94919 18.5524C4.99547 18.6642 5.06331 18.7657 5.14883 18.8512C5.32153 19.0239 5.55578 19.1209 5.80003 19.1209C5.92096 19.1209 6.04072 19.0971 6.15245 19.0508C6.26419 19.0045 6.36571 18.9367 6.45123 18.8512L12 13.3008L17.5504 18.8512C17.7231 19.0237 17.9573 19.1205 18.2014 19.1204C18.4455 19.1202 18.6795 19.0231 18.852 18.8504C19.0245 18.6777 19.1213 18.4435 19.1212 18.1994C19.121 17.9553 19.0239 17.7213 18.8512 17.5488L13.3008 12L18.8512 6.45119Z" fill="#4F4F4F"/>
</svg>
