<svg width="24" height="24" viewBox="0 0 24 24" fill="none" xmlns="http://www.w3.org/2000/svg">
<path d="M6.22701 11H17.774C18.636 11 19.094 9.98 18.521 9.335L12.748 2.84C12.6544 2.7343 12.5394 2.64968 12.4106 2.59173C12.2818 2.53378 12.1422 2.50381 12.001 2.50381C11.8598 2.50381 11.7202 2.53378 11.5914 2.59173C11.4627 2.64968 11.3476 2.7343 11.254 2.84L5.47901 9.335C4.90601 9.98 5.36401 11 6.22701 11ZM11.253 21.159C11.3466 21.2647 11.4617 21.3493 11.5904 21.4073C11.7192 21.4652 11.8588 21.4952 12 21.4952C12.1412 21.4952 12.2808 21.4652 12.4096 21.4073C12.5384 21.3493 12.6534 21.2647 12.747 21.159L18.52 14.664C19.094 14.02 18.636 13 17.773 13H6.22701C5.36501 13 4.90701 14.02 5.48001 14.665L11.253 21.159Z" fill="#4F4F4F"/>
</svg>
