<svg width="24" height="24" viewBox="0 0 24 24" fill="none" xmlns="http://www.w3.org/2000/svg">
<path d="M23.1844 11.7C23.1562 11.625 22.3594 9.8625 20.5969 8.09063C18.2437 5.74688 15.2719 4.5 12 4.5C8.72812 4.5 5.75624 5.74688 3.40312 8.09063C1.64062 9.8625 0.843741 11.625 0.815616 11.7C0.77376 11.7945 0.752136 11.8967 0.752136 12C0.752136 12.1033 0.77376 12.2055 0.815616 12.3C0.843741 12.375 1.64062 14.1375 3.40312 15.9094C5.75624 18.2531 8.72812 19.5 12 19.5C15.2719 19.5 18.2437 18.2531 20.5969 15.9094C22.3594 14.1375 23.1562 12.375 23.1844 12.3C23.2262 12.2055 23.2478 12.1033 23.2478 12C23.2478 11.8967 23.2262 11.7945 23.1844 11.7ZM12 18C9.11249 18 6.59062 16.95 4.50937 14.8781C3.64924 14.031 2.91943 13.0611 2.34374 12C2.91865 10.9356 3.64849 9.96245 4.50937 9.1125C6.59062 7.05 9.11249 6 12 6C14.8875 6 17.4094 7.05 19.4906 9.1125C20.3515 9.96245 21.0813 10.9356 21.6562 12C20.9812 13.2656 18.0375 18 12 18ZM12 7.5C11.11 7.5 10.2399 7.76392 9.49993 8.25839C8.7599 8.75285 8.18313 9.45566 7.84253 10.2779C7.50194 11.1002 7.41282 12.005 7.58646 12.8779C7.76009 13.7508 8.18867 14.5526 8.81801 15.182C9.44735 15.8113 10.2492 16.2399 11.1221 16.4135C11.995 16.5872 12.8998 16.4981 13.7221 16.1575C14.5443 15.8169 15.2471 15.2401 15.7416 14.5001C16.2361 13.76 16.5 12.89 16.5 12C16.5 10.8065 16.0259 9.66193 15.182 8.81802C14.3381 7.97411 13.1935 7.5 12 7.5ZM12 15C11.4066 15 10.8266 14.8241 10.3333 14.4944C9.83993 14.1648 9.45542 13.6962 9.22835 13.1481C9.00129 12.5999 8.94188 11.9967 9.05764 11.4147C9.17339 10.8328 9.45911 10.2982 9.87867 9.87868C10.2982 9.45912 10.8328 9.1734 11.4147 9.05764C11.9967 8.94189 12.5999 9.0013 13.148 9.22836C13.6962 9.45542 14.1648 9.83994 14.4944 10.3333C14.824 10.8266 15 11.4067 15 12C14.9975 12.7949 14.6807 13.5565 14.1186 14.1186C13.5565 14.6807 12.7949 14.9975 12 15Z" fill="#4F4F4F"/>
</svg>
